PathFileType	4	(X/Y/Z)	4_coords_data.trc
DataRate	CameraRate	NumFrames	NumMarkers	Units	OrigDataRate	OrigDataStartFrame	OrigNumFrames
30.0	30.0	8	21	m	30.0	1	47
Frame#	Time	THUMB_TIP	THUMB_IP	THUMB_MCP	THUMB_CMC	INDEX_TIP	INDEX_DIP	INDEX_PIP	INDEX_MCP	MIDDLE_TIP	MIDDLE_DIP	MIDDLE_PIP	MIDDLE_MCP	RING_TIP	RING_DIP	RING_PIP	RING_MCP	PINKY_TIP	PINKY_DIP	PINKY_PIP	PINKY_MCP	WRIST
X1	Y1	Z1	X2	Y2	Z2	X3	Y3	Z3	X4	Y4	Z4	X5	Y5	Z5	X6	Y6	Z6	X7	Y7	Z7	X8	Y8	Z8	X9	Y9	Z9	X10	Y10	Z10	X11	Y11	Z11	X12	Y12	Z12	X13	Y13	Z13	X14	Y14	Z14	X15	Y15	Z15	X16	Y16	Z16	X17	Y17	Z17	X18	Y18	Z18	X19	Y19	Z19	X20	Y20	Z20	X21	Y21	Z21
0	0.0	-0.032467601776123046	-0.08936959838867188	1.1220999755859375	-0.031940099716186526	-0.07111019897460938	1.107260009765625	-0.04793249893188477	-0.04938890075683594	1.0918199462890625	-0.05038010025024414	-0.015622599601745606	1.0905899658203124	-0.042596298217773436	-0.14772200012207032	1.07393994140625	-0.04221440124511719	-0.1261429977416992	1.0685999755859374	-0.04044179916381836	-0.1027509994506836	1.062260009765625	-0.03352199935913086	-0.06286169815063476	1.0446600341796874	-0.02718779945373535	-0.06197639846801758	1.0851700439453125	-0.027218599319458008	-0.08141739654541015	1.08781005859375	-0.020291799545288085	-0.09689209747314453	1.0703299560546875	-0.006348569869995117	-0.058594200134277345	1.0466500244140624	-0.016290199279785155	-0.06196620178222656	1.0899300537109375	-0.015490900039672852	-0.07767929840087891	1.09527001953125	0.006343629837036133	-0.08890969848632813	1.0858199462890625	0.011268500328063966	-0.053112098693847656	1.064739990234375	0.0727427978515625	-0.09541049957275391	1.0855699462890624	0.05708620071411133	-0.08210379791259766	1.0860799560546874	0.04048220062255859	-0.06837409973144531	1.0860799560546874	0.02089030075073242	-0.0505099983215332	1.0829200439453126	-0.032185901641845704	0.024545400619506837	1.08702001953125
1	0.03333333333333333	-0.030900800704956054	-0.08674530029296874	1.122550048828125	-0.03124099922180176	-0.0677781982421875	1.105510009765625	-0.04771210098266602	-0.04677389907836914	1.0916700439453124	-0.047477401733398435	-0.01285550022125244	1.0889599609375	-0.043070598602294924	-0.1457310028076172	1.073699951171875	-0.04203730010986328	-0.12433799743652343	1.0685799560546876	-0.04042079925537109	-0.10154000091552734	1.0623800048828125	-0.032885299682617185	-0.06057180023193359	1.0446199951171875	-0.028540300369262694	-0.05811270141601563	1.085739990234375	-0.0275856990814209	-0.07860340118408203	1.086760009765625	-0.019665899276733397	-0.095368896484375	1.070699951171875	-0.0065426301956176755	-0.057101699829101564	1.0466800537109375	-0.014100199699401855	-0.056000499725341796	1.096280029296875	-0.011290699958801269	-0.07500260162353516	1.099	0.0061578302383422856	-0.08705760192871094	1.0855400390625	0.012213100433349609	-0.051165901184082034	1.0629000244140625	0.07335289764404297	-0.09404170227050782	1.0850899658203126	0.05698789978027344	-0.07963790130615235	1.0862099609375	0.04111420059204102	-0.06679940032958985	1.085530029296875	0.018528499603271485	-0.045300399780273434	1.0835400390625	-0.03174570083618164	0.025903799057006835	1.0873499755859375
2	0.06666666666666667	-0.031492599487304686	-0.08577410125732422	1.1223900146484376	-0.03151440048217773	-0.06645480346679687	1.10547998046875	-0.048007099151611325	-0.04549489974975586	1.092469970703125	-0.04747650146484375	-0.011923700332641602	1.089	-0.043599899291992185	-0.1445070037841797	1.0733399658203124	-0.04255170059204102	-0.12310600280761719	1.0683699951171874	-0.040889400482177735	-0.1002509994506836	1.062300048828125	-0.0332322998046875	-0.059241600036621093	1.044739990234375	-0.02873349952697754	-0.05736320114135742	1.0846500244140624	-0.02756439971923828	-0.07733370208740234	1.08747998046875	-0.020025800704956055	-0.0941948013305664	1.0706300048828126	-0.006951129913330078	-0.05577539825439453	1.0466500244140624	-0.014494799613952636	-0.055526599884033204	1.0986099853515625	-0.011786999702453614	-0.07380660247802734	1.0983399658203126	0.005736149787902832	-0.08618150329589844	1.08568994140625	0.01190999984741211	-0.05007329940795899	1.0624100341796876	0.07305410003662109	-0.09313169860839844	1.0846700439453125	0.056696300506591794	-0.07874849700927734	1.086050048828125	0.04082669830322266	-0.06584030151367187	1.0853199462890626	0.018355199813842774	-0.04460240173339844	1.0836300048828125	-0.03189389991760254	0.026839399337768556	1.087719970703125
3	0.1	-0.03088249969482422	-0.08556240081787109	1.1222900390625	-0.031628700256347654	-0.06635479736328125	1.10522998046875	-0.048017799377441404	-0.04509080123901367	1.0926800537109376	-0.047696098327636716	-0.011342000007629395	1.0894100341796875	-0.04434870147705078	-0.14381500244140624	1.0729200439453126	-0.04318970108032227	-0.12234300231933594	1.068030029296875	-0.04144079971313477	-0.09946299743652344	1.062030029296875	-0.0338661003112793	-0.058471298217773436	1.0446199951171875	-0.02862120056152344	-0.05702410125732422	1.0851700439453125	-0.02818589973449707	-0.07688469696044922	1.0875	-0.020444400787353517	-0.093595703125	1.0701500244140625	-0.007543039798736572	-0.055036899566650394	1.046449951171875	-0.01452079963684082	-0.05495289993286133	1.0970899658203126	-0.012119600296020508	-0.07365039825439453	1.09868994140625	0.005252369880676269	-0.0857512969970703	1.0850899658203126	0.011400300025939942	-0.04947100067138672	1.062219970703125	0.07260260009765625	-0.09279290008544921	1.0840999755859375	0.05625339889526367	-0.07838259887695312	1.085530029296875	0.04043130111694336	-0.06540809631347656	1.08475	0.01791309928894043	-0.044025398254394534	1.0837099609375	-0.03209550094604492	0.02760379981994629	1.0883499755859376
4	0.13333333333333333	-0.03173900032043457	-0.08560590362548828	1.1221600341796876	-0.03232699966430664	-0.0663759002685547	1.10527001953125	-0.048283199310302734	-0.04509299850463867	1.092449951171875	-0.047907798767089844	-0.011163100242614746	1.09006005859375	-0.044909900665283206	-0.1437480010986328	1.072530029296875	-0.04376490020751953	-0.12221800231933594	1.067780029296875	-0.04200230026245117	-0.09924829864501954	1.0618599853515625	-0.03449430084228516	-0.05819589996337891	1.0446300048828125	-0.029102300643920897	-0.05677239990234375	1.0860799560546874	-0.028529300689697265	-0.0769677963256836	1.0869100341796876	-0.021031099319458006	-0.09352680206298829	1.070050048828125	-0.008079330444335937	-0.05484719848632812	1.0465899658203126	-0.015114999771118165	-0.05520970153808594	1.0992099609375	-0.012902299880981445	-0.07371749877929687	1.0986500244140625	0.004501120090484619	-0.08592949676513671	1.0848199462890624	0.01077400016784668	-0.04950400161743164	1.0620899658203125	0.07210489654541016	-0.092918701171875	1.08406005859375	0.05575070190429687	-0.0784749984741211	1.0855699462890624	0.039967098236083985	-0.0654833984375	1.08481005859375	0.017536600112915038	-0.04420529937744141	1.08352001953125	-0.03252069854736328	0.027737300872802736	1.0889100341796876
5	0.16666666666666666	-0.032324100494384764	-0.08577909851074218	1.12268994140625	-0.0329552001953125	-0.06645040130615235	1.10522998046875	-0.04856050109863281	-0.045181598663330075	1.0930400390625	-0.04826169967651367	-0.011361599922180176	1.0901300048828124	-0.04528070068359375	-0.14389999389648436	1.07302001953125	-0.044156398773193356	-0.12237999725341797	1.06827001953125	-0.042430900573730466	-0.09943589782714844	1.0623399658203125	-0.03495429992675781	-0.05836289978027344	1.044949951171875	-0.030299999237060546	-0.05660480117797852	1.087300048828125	-0.02879170036315918	-0.0768738021850586	1.0866700439453125	-0.021486900329589845	-0.09358779907226562	1.0706300048828126	-0.008534049987792969	-0.054981300354003906	1.04675	-0.015315799713134766	-0.05502379989624023	1.0969200439453124	-0.01342520046234131	-0.07392620086669922	1.09881005859375	0.0038586099147796633	-0.08623210144042968	1.084969970703125	0.010315199851989747	-0.049641101837158204	1.062739990234375	0.07175360107421876	-0.09293900299072265	1.0845699462890626	0.055437999725341795	-0.07861239624023438	1.08593994140625	0.03967150115966797	-0.06560780334472656	1.08522998046875	0.017212900161743164	-0.0444463996887207	1.0836099853515626	-0.032947200775146485	0.027807300567626952	1.0898499755859374
6	0.2	-0.032456001281738284	-0.0855386962890625	1.1226500244140625	-0.033295398712158204	-0.06634839630126953	1.1054200439453126	-0.04907490158081055	-0.044879798889160154	1.0931400146484376	-0.04864759826660156	-0.011210100173950195	1.090489990234375	-0.04561270141601562	-0.1437239990234375	1.0731500244140626	-0.04449660110473633	-0.12218199920654296	1.0683399658203125	-0.04276940155029297	-0.09921410369873047	1.0624000244140626	-0.03540029907226563	-0.05818790054321289	1.0451700439453124	-0.03008489990234375	-0.05713769912719727	1.08506005859375	-0.029336999893188477	-0.07678099822998047	1.08772998046875	-0.02182029914855957	-0.09349800109863281	1.0706099853515625	-0.008938409805297852	-0.054808300018310545	1.0469000244140625	-0.015897199630737303	-0.055005901336669924	1.0977900390625	-0.0136471004486084	-0.07394570159912109	1.098760009765625	0.00330344009399414	-0.0862468032836914	1.0848599853515626	0.009964539527893066	-0.04949779891967773	1.062550048828125	0.0715083999633789	-0.0927323989868164	1.0846600341796875	0.055137500762939454	-0.07836540222167969	1.08593994140625	0.039413501739501956	-0.06542330169677735	1.085280029296875	0.01677120018005371	-0.044302200317382814	1.08406005859375	-0.03325120162963867	0.027636400222778322	1.0895400390625
7	0.23333333333333334	-0.03303120040893555	-0.08518099975585937	1.1223900146484376	-0.03357780075073242	-0.06621269989013671	1.1056199951171874	-0.04923369979858398	-0.04492340087890625	1.09331005859375	-0.049056098937988284	-0.011162799835205078	1.0903399658203126	-0.04620719909667969	-0.14351699829101563	1.0726300048828126	-0.045085601806640625	-0.1219739990234375	1.0679200439453125	-0.04334360122680664	-0.09899819946289062	1.0620400390625	-0.03598249816894531	-0.05789699935913086	1.045280029296875	-0.030527700424194337	-0.05641019821166992	1.087280029296875	-0.030906999588012695	-0.07675250244140625	1.08797998046875	-0.022420000076293946	-0.0933052978515625	1.0703699951171874	-0.00952239990234375	-0.05443820190429687	1.046739990234375	-0.01624209976196289	-0.05481829833984375	1.0975899658203125	-0.014229100227355957	-0.07330619812011718	1.0977900390625	0.002689909934997558	-0.08620790100097656	1.0844300537109375	0.00942722988128662	-0.04929959869384765	1.062719970703125	0.07076809692382813	-0.09296829986572265	1.08431005859375	0.05446929931640625	-0.07853620147705079	1.0859000244140624	0.03878229904174805	-0.06548609924316406	1.0850899658203126	0.016375200271606445	-0.04435580062866211	1.0835899658203125	-0.03354840087890625	0.027996000289916993	1.0898800048828126
